# xmcd CD database file
#
# Track frame offsets:
#	150
#	22666
#	43308
#	65776
#
# Disc length: 1151 seconds
#
# Revision: 0
# Processed by: cddbd v1.5.1PL0 Copyright (c) Steve Scherf et al.
# Submitted via: CDex 1.51
#
DISCID=30047d04
DTITLE=DeviceHigh - Lunatica 〜prelude〜
DYEAR=2004
DGENRE=Japanese Pop
TTITLE0=Everlasting
TTITLE1=Cat Walker
TTITLE2=Everlasting (Off Vocal Version)
TTITLE3=Cat Walker (Off Vocal Version)
EXTD=YEAR: 2004
EXTT0=
EXTT1=
EXTT2=
EXTT3=
PLAYORDER=
